<svg width="32" height="32" viewBox="0 0 32 32" fill="none" xmlns="http://www.w3.org/2000/svg">
<path fill-rule="evenodd" clip-rule="evenodd" d="M16 30C23.732 30 30 23.732 30 16C30 8.26801 23.732 2 16 2C8.26801 2 2 8.26801 2 16C2 23.732 8.26801 30 16 30ZM12.7899 10.8101C12.2432 10.2633 11.3568 10.2633 10.8101 10.8101C10.2633 11.3568 10.2633 12.2432 10.8101 12.7899L14.0201 16L10.8101 19.2101C10.2633 19.7568 10.2633 20.6432 10.8101 21.1899C11.3568 21.7367 12.2432 21.7367 12.7899 21.1899L16 17.9799L19.2101 21.1899C19.7568 21.7367 20.6432 21.7367 21.1899 21.1899C21.7367 20.6432 21.7367 19.7568 21.1899 19.2101L17.9799 16L21.1899 12.7899C21.7367 12.2432 21.7367 11.3568 21.1899 10.8101C20.6432 10.2633 19.7568 10.2633 19.2101 10.8101L16 14.0201L12.7899 10.8101Z" fill="#C6C6C6"/>
</svg>
