<svg width="38" height="40" viewBox="0 0 38 40" fill="none" xmlns="http://www.w3.org/2000/svg">
<path d="M0 4C0 1.79086 1.79086 0 4 0H27.4444L32.1944 4.95L38 11V36C38 38.2091 36.2091 40 34 40H4C1.79086 40 0 38.2091 0 36V4Z" fill="#2A83E4"/>
<path d="M38 11H29.4444C28.3399 11 27.4444 10.1046 27.4444 9V0L32.7222 5.5L38 11Z" fill="white" fill-opacity="0.55"/>
<path d="M9.95835 25H7.13306V16.2727H10.0478C10.9029 16.2727 11.6373 16.4474 12.251 16.7969C12.8646 17.1435 13.3348 17.642 13.6615 18.2926C13.991 18.9403 14.1558 19.7173 14.1558 20.6236C14.1558 21.5327 13.9896 22.3139 13.6572 22.9673C13.3277 23.6207 12.8504 24.1236 12.2254 24.4759C11.6004 24.8253 10.8447 25 9.95835 25ZM8.44982 23.8494H9.8859C10.5507 23.8494 11.1032 23.7244 11.5436 23.4744C11.9839 23.2216 12.3135 22.8565 12.5322 22.3793C12.751 21.8991 12.8603 21.3139 12.8603 20.6236C12.8603 19.9389 12.751 19.358 12.5322 18.8807C12.3163 18.4034 11.9939 18.0412 11.5649 17.794C11.1359 17.5469 10.6032 17.4233 9.96687 17.4233H8.44982V23.8494ZM23.3742 20.6364C23.3742 21.5682 23.2037 22.3693 22.8628 23.0398C22.5219 23.7074 22.0546 24.2216 21.4608 24.5824C20.8699 24.9403 20.198 25.1193 19.4452 25.1193C18.6895 25.1193 18.0148 24.9403 17.4211 24.5824C16.8302 24.2216 16.3642 23.706 16.0233 23.0355C15.6824 22.3651 15.512 21.5653 15.512 20.6364C15.512 19.7045 15.6824 18.9048 16.0233 18.2372C16.3642 17.5668 16.8302 17.0526 17.4211 16.6946C18.0148 16.3338 18.6895 16.1534 19.4452 16.1534C20.198 16.1534 20.8699 16.3338 21.4608 16.6946C22.0546 17.0526 22.5219 17.5668 22.8628 18.2372C23.2037 18.9048 23.3742 19.7045 23.3742 20.6364ZM22.0702 20.6364C22.0702 19.9261 21.9552 19.3281 21.725 18.8423C21.4978 18.3537 21.1853 17.9844 20.7875 17.7344C20.3927 17.4815 19.9452 17.3551 19.4452 17.3551C18.9424 17.3551 18.4935 17.4815 18.0986 17.7344C17.7037 17.9844 17.3912 18.3537 17.1611 18.8423C16.9338 19.3281 16.8202 19.9261 16.8202 20.6364C16.8202 21.3466 16.9338 21.946 17.1611 22.4347C17.3912 22.9205 17.7037 23.2898 18.0986 23.5426C18.4935 23.7926 18.9424 23.9176 19.4452 23.9176C19.9452 23.9176 20.3927 23.7926 20.7875 23.5426C21.1853 23.2898 21.4978 22.9205 21.725 22.4347C21.9552 21.946 22.0702 21.3466 22.0702 20.6364ZM32.2645 19.1108H30.9349C30.8838 18.8267 30.7886 18.5767 30.6494 18.3608C30.5102 18.1449 30.3397 17.9616 30.138 17.8111C29.9363 17.6605 29.7105 17.5469 29.4605 17.4702C29.2133 17.3935 28.9505 17.3551 28.6721 17.3551C28.1693 17.3551 27.719 17.4815 27.3213 17.7344C26.9264 17.9872 26.6139 18.358 26.3838 18.8466C26.1565 19.3352 26.0429 19.9318 26.0429 20.6364C26.0429 21.3466 26.1565 21.946 26.3838 22.4347C26.6139 22.9233 26.9278 23.2926 27.3255 23.5426C27.7233 23.7926 28.1707 23.9176 28.6679 23.9176C28.9434 23.9176 29.2048 23.8807 29.452 23.8068C29.702 23.7301 29.9278 23.6179 30.1295 23.4702C30.3312 23.3224 30.5017 23.142 30.6409 22.929C30.7829 22.7131 30.8809 22.4659 30.9349 22.1875L32.2645 22.1918C32.1934 22.6207 32.0556 23.0156 31.8511 23.3764C31.6494 23.7344 31.3895 24.044 31.0713 24.3054C30.7559 24.5639 30.3951 24.7642 29.9889 24.9062C29.5826 25.0483 29.1395 25.1193 28.6593 25.1193C27.9037 25.1193 27.2304 24.9403 26.6395 24.5824C26.0485 24.2216 25.5826 23.706 25.2417 23.0355C24.9037 22.3651 24.7346 21.5653 24.7346 20.6364C24.7346 19.7045 24.9051 18.9048 25.246 18.2372C25.5869 17.5668 26.0528 17.0526 26.6437 16.6946C27.2346 16.3338 27.9065 16.1534 28.6593 16.1534C29.1224 16.1534 29.5542 16.2202 29.9548 16.3537C30.3582 16.4844 30.7204 16.6776 31.0414 16.9332C31.3625 17.1861 31.6281 17.4957 31.8383 17.8622C32.0485 18.2259 32.1906 18.642 32.2645 19.1108Z" fill="white"/>
</svg>
