<svg width="38" height="40" viewBox="0 0 38 40" fill="none" xmlns="http://www.w3.org/2000/svg">
<path d="M0 4C0 1.79086 1.79086 0 4 0H27.4444L31.9316 4.67614L38 11V36C38 38.2091 36.2091 40 34 40H4C1.79086 40 0 38.2091 0 36V4Z" fill="#E18308"/>
<path d="M38 11H29.4444C28.3399 11 27.4444 10.1046 27.4444 9V0L32.7222 5.5L38 11Z" fill="white" fill-opacity="0.55"/>
<path d="M7.87082 16.2727H9.18332V22.4602C9.18332 23.0199 9.07252 23.4986 8.85093 23.8963C8.63218 24.294 8.32394 24.598 7.92622 24.8082C7.52849 25.0156 7.06258 25.1193 6.52849 25.1193C6.03701 25.1193 5.59525 25.0298 5.2032 24.8509C4.814 24.6719 4.50576 24.4119 4.27849 24.071C4.05406 23.7273 3.94184 23.3097 3.94184 22.8182H5.25008C5.25008 23.0597 5.30548 23.2685 5.41627 23.4446C5.52991 23.6207 5.68474 23.7585 5.88076 23.858C6.07963 23.9545 6.3069 24.0028 6.56258 24.0028C6.84099 24.0028 7.07678 23.9446 7.26997 23.8281C7.46599 23.7088 7.61514 23.5341 7.71741 23.304C7.81968 23.0739 7.87082 22.7926 7.87082 22.4602V16.2727ZM11.0999 25V16.2727H14.2107C14.8896 16.2727 15.4521 16.3963 15.8982 16.6435C16.3442 16.8906 16.678 17.2287 16.8996 17.6577C17.1212 18.0838 17.232 18.5639 17.232 19.098C17.232 19.6349 17.1198 20.1179 16.8953 20.5469C16.6737 20.973 16.3385 21.3111 15.8896 21.5611C15.4436 21.8082 14.8825 21.9318 14.2064 21.9318H12.0672V20.8153H14.0871C14.5161 20.8153 14.8641 20.7415 15.1311 20.5938C15.3982 20.4432 15.5942 20.2386 15.7192 19.9801C15.8442 19.7216 15.9067 19.4276 15.9067 19.098C15.9067 18.7685 15.8442 18.4759 15.7192 18.2202C15.5942 17.9645 15.3967 17.7642 15.1269 17.6193C14.8598 17.4744 14.5075 17.402 14.07 17.402H12.4166V25H11.0999ZM18.7756 25V16.2727H24.2472V17.4062H20.0924V20.0653H23.9617V21.1946H20.0924V23.8665H24.2984V25H18.7756ZM31.9124 19.0298C31.83 18.7713 31.7192 18.5398 31.58 18.3352C31.4436 18.1278 31.2803 17.9517 31.0899 17.8068C30.8996 17.6591 30.6823 17.5469 30.4379 17.4702C30.1965 17.3935 29.9308 17.3551 29.6411 17.3551C29.1496 17.3551 28.7064 17.4815 28.3115 17.7344C27.9166 17.9872 27.6041 18.358 27.374 18.8466C27.1467 19.3324 27.0331 19.9276 27.0331 20.6321C27.0331 21.3395 27.1482 21.9375 27.3783 22.4261C27.6084 22.9148 27.9237 23.2855 28.3243 23.5384C28.7249 23.7912 29.1808 23.9176 29.6922 23.9176C30.1666 23.9176 30.58 23.821 30.9323 23.6278C31.2874 23.4347 31.5615 23.1619 31.7547 22.8097C31.9507 22.4545 32.0487 22.0369 32.0487 21.5568L32.3896 21.6207H29.8925V20.5341H33.3229V21.527C33.3229 22.2599 33.1666 22.8963 32.8541 23.4361C32.5445 23.973 32.1155 24.3878 31.5672 24.6804C31.0217 24.973 30.3967 25.1193 29.6922 25.1193C28.9024 25.1193 28.2092 24.9375 27.6127 24.5739C27.0189 24.2102 26.5558 23.6946 26.2234 23.027C25.8911 22.3565 25.7249 21.5611 25.7249 20.6406C25.7249 19.9446 25.8215 19.3196 26.0146 18.7656C26.2078 18.2116 26.4791 17.7415 26.8286 17.3551C27.1808 16.9659 27.5942 16.669 28.0686 16.4645C28.5459 16.2571 29.0672 16.1534 29.6325 16.1534C30.1041 16.1534 30.543 16.223 30.9493 16.3622C31.3584 16.5014 31.722 16.6989 32.0402 16.9545C32.3612 17.2102 32.6269 17.5142 32.8371 17.8665C33.0473 18.2159 33.1894 18.6037 33.2632 19.0298H31.9124Z" fill="white"/>
</svg>
