<svg width="38" height="40" viewBox="0 0 38 40" fill="none" xmlns="http://www.w3.org/2000/svg">
<path d="M0 4C0 1.79086 1.79086 0 4 0H27.4444L32.5345 5.3044L38 11V36C38 38.2091 36.2091 40 34 40H4C1.79086 40 0 38.2091 0 36V4Z" fill="#AA3028"/>
<path d="M38 11H29.4444C28.3399 11 27.4444 10.1046 27.4444 9V0L32.7222 5.5L38 11Z" fill="white" fill-opacity="0.55"/>
<path d="M8.27521 25V16.2727H11.386C12.065 16.2727 12.6275 16.3963 13.0735 16.6435C13.5195 16.8906 13.8533 17.2287 14.0749 17.6577C14.2965 18.0838 14.4073 18.5639 14.4073 19.098C14.4073 19.6349 14.2951 20.1179 14.0707 20.5469C13.8491 20.973 13.5138 21.3111 13.065 21.5611C12.619 21.8082 12.0579 21.9318 11.3817 21.9318H9.24254V20.8153H11.2624C11.6914 20.8153 12.0394 20.7415 12.3065 20.5938C12.5735 20.4432 12.7695 20.2386 12.8945 19.9801C13.0195 19.7216 13.082 19.4276 13.082 19.098C13.082 18.7685 13.0195 18.4759 12.8945 18.2202C12.7695 17.9645 12.5721 17.7642 12.3022 17.6193C12.0352 17.4744 11.6829 17.402 11.2454 17.402H9.59197V25H8.27521ZM18.7763 25H15.951V16.2727H18.8658C19.7209 16.2727 20.4553 16.4474 21.0689 16.7969C21.6825 17.1435 22.1527 17.642 22.4794 18.2926C22.8089 18.9403 22.9737 19.7173 22.9737 20.6236C22.9737 21.5327 22.8075 22.3139 22.4751 22.9673C22.1456 23.6207 21.6683 24.1236 21.0433 24.4759C20.4183 24.8253 19.6626 25 18.7763 25ZM17.2678 23.8494H18.7038C19.3686 23.8494 19.9212 23.7244 20.3615 23.4744C20.8018 23.2216 21.1314 22.8565 21.3501 22.3793C21.5689 21.8991 21.6783 21.3139 21.6783 20.6236C21.6783 19.9389 21.5689 19.358 21.3501 18.8807C21.1342 18.4034 20.8118 18.0412 20.3828 17.794C19.9538 17.5469 19.4212 17.4233 18.7848 17.4233H17.2678V23.8494ZM24.6111 25V16.2727H30.0231V17.4062H25.9279V20.0653H29.6353V21.1946H25.9279V25H24.6111Z" fill="white"/>
</svg>
