<svg width="38" height="40" viewBox="0 0 38 40" fill="none" xmlns="http://www.w3.org/2000/svg">
<path d="M0 4C0 1.79086 1.79086 0 4 0H27.4444L31.9316 4.67614L38 11V36C38 38.2091 36.2091 40 34 40H4C1.79086 40 0 38.2091 0 36V4Z" fill="#5767DB"/>
<path d="M38 11H29.4444C28.3399 11 27.4444 10.1046 27.4444 9V0L32.7222 5.5L38 11Z" fill="white" fill-opacity="0.55"/>
<path d="M7.14435 25V16.2727H10.2551C10.9341 16.2727 11.4966 16.3963 11.9426 16.6435C12.3887 16.8906 12.7225 17.2287 12.9441 17.6577C13.1657 18.0838 13.2765 18.5639 13.2765 19.098C13.2765 19.6349 13.1642 20.1179 12.9398 20.5469C12.7182 20.973 12.383 21.3111 11.9341 21.5611C11.4881 21.8082 10.927 21.9318 10.2509 21.9318H8.11168V20.8153H10.1316C10.5605 20.8153 10.9086 20.7415 11.1756 20.5938C11.4426 20.4432 11.6387 20.2386 11.7637 19.9801C11.8887 19.7216 11.9512 19.4276 11.9512 19.098C11.9512 18.7685 11.8887 18.4759 11.7637 18.2202C11.6387 17.9645 11.4412 17.7642 11.1713 17.6193C10.9043 17.4744 10.552 17.402 10.1145 17.402H8.46112V25H7.14435ZM21.8642 16.2727V25H20.6539L16.2179 18.5994H16.1369V25H14.8201V16.2727H16.0389L20.4792 22.6818H20.5602V16.2727H21.8642ZM29.6912 19.0298C29.6088 18.7713 29.498 18.5398 29.3588 18.3352C29.2225 18.1278 29.0591 17.9517 28.8688 17.8068C28.6784 17.6591 28.4611 17.5469 28.2168 17.4702C27.9753 17.3935 27.7097 17.3551 27.4199 17.3551C26.9284 17.3551 26.4853 17.4815 26.0904 17.7344C25.6955 17.9872 25.383 18.358 25.1529 18.8466C24.9256 19.3324 24.812 19.9276 24.812 20.6321C24.812 21.3395 24.927 21.9375 25.1571 22.4261C25.3873 22.9148 25.7026 23.2855 26.1032 23.5384C26.5037 23.7912 26.9597 23.9176 27.4711 23.9176C27.9455 23.9176 28.3588 23.821 28.7111 23.6278C29.0662 23.4347 29.3404 23.1619 29.5336 22.8097C29.7296 22.4545 29.8276 22.0369 29.8276 21.5568L30.1685 21.6207H27.6713V20.5341H31.1017V21.527C31.1017 22.2599 30.9455 22.8963 30.633 23.4361C30.3233 23.973 29.8944 24.3878 29.3461 24.6804C28.8006 24.973 28.1756 25.1193 27.4711 25.1193C26.6813 25.1193 25.9881 24.9375 25.3915 24.5739C24.7978 24.2102 24.3347 23.6946 24.0023 23.027C23.6699 22.3565 23.5037 21.5611 23.5037 20.6406C23.5037 19.9446 23.6003 19.3196 23.7935 18.7656C23.9867 18.2116 24.258 17.7415 24.6074 17.3551C24.9597 16.9659 25.373 16.669 25.8475 16.4645C26.3248 16.2571 26.8461 16.1534 27.4114 16.1534C27.883 16.1534 28.3219 16.223 28.7282 16.3622C29.1373 16.5014 29.5009 16.6989 29.8191 16.9545C30.1401 17.2102 30.4057 17.5142 30.6159 17.8665C30.8262 18.2159 30.9682 18.6037 31.0421 19.0298H29.6912Z" fill="white"/>
</svg>
