<svg width="38" height="40" viewBox="0 0 38 40" fill="none" xmlns="http://www.w3.org/2000/svg">
<path d="M0 4C0 1.79086 1.79086 0 4 0H27.4444L32.4056 5.17006L38 11V36C38 38.2091 36.2091 40 34 40H4C1.79086 40 0 38.2091 0 36V4Z" fill="#038A4D"/>
<path d="M38 11H29.4444C28.3399 11 27.4444 10.1046 27.4444 9V0L32.7222 5.5L38 11Z" fill="white" fill-opacity="0.55"/>
<path d="M6.16254 16.2727L8.25061 19.6861H8.31879L10.4069 16.2727H11.9324L9.21368 20.6364L11.9495 25H10.4154L8.31879 21.6335H8.25061L6.15402 25H4.61993L7.4026 20.6364L4.63697 16.2727H6.16254ZM13.2385 25V16.2727H14.5553V23.8665H18.5098V25H13.2385ZM24.7719 18.5653C24.7265 18.1619 24.539 17.8494 24.2094 17.6278C23.8799 17.4034 23.4651 17.2912 22.9651 17.2912C22.6071 17.2912 22.2975 17.348 22.0361 17.4616C21.7748 17.5724 21.5716 17.7259 21.4267 17.9219C21.2847 18.1151 21.2137 18.3352 21.2137 18.5824C21.2137 18.7898 21.262 18.9687 21.3586 19.1193C21.458 19.2699 21.5873 19.3963 21.7463 19.4986C21.9083 19.598 22.0816 19.6818 22.2662 19.75C22.4509 19.8153 22.6284 19.8693 22.7989 19.9119L23.6512 20.1335C23.9296 20.2017 24.2151 20.294 24.5077 20.4105C24.8003 20.527 25.0716 20.6804 25.3216 20.8707C25.5716 21.0611 25.7733 21.2969 25.9267 21.5781C26.083 21.8594 26.1611 22.196 26.1611 22.5881C26.1611 23.0824 26.0333 23.5213 25.7776 23.9048C25.5248 24.2884 25.1569 24.5909 24.6739 24.8125C24.1938 25.0341 23.6128 25.1449 22.931 25.1449C22.2776 25.1449 21.7123 25.0412 21.235 24.8338C20.7577 24.6264 20.3841 24.3324 20.1142 23.9517C19.8444 23.5682 19.6952 23.1136 19.6668 22.5881H20.9878C21.0134 22.9034 21.1157 23.1662 21.2946 23.3764C21.4765 23.5838 21.708 23.7386 21.9892 23.8409C22.2733 23.9403 22.5844 23.9901 22.9225 23.9901C23.2946 23.9901 23.6256 23.9318 23.9154 23.8153C24.208 23.696 24.4381 23.5312 24.6057 23.321C24.7733 23.108 24.8571 22.8594 24.8571 22.5753C24.8571 22.3168 24.7833 22.1051 24.6356 21.9403C24.4907 21.7756 24.2932 21.6392 24.0432 21.5312C23.7961 21.4233 23.5162 21.3281 23.2037 21.2457L22.1725 20.9645C21.4736 20.7741 20.9196 20.4943 20.5106 20.125C20.1043 19.7557 19.9012 19.267 19.9012 18.6591C19.9012 18.1562 20.0375 17.7173 20.3103 17.3423C20.583 16.9673 20.9523 16.6761 21.4182 16.4688C21.8841 16.2585 22.4097 16.1534 22.9949 16.1534C23.5858 16.1534 24.1071 16.2571 24.5588 16.4645C25.0134 16.6719 25.3713 16.9574 25.6327 17.321C25.8941 17.6818 26.0304 18.0966 26.0418 18.5653H24.7719ZM28.6508 16.2727L30.7389 19.6861H30.8071L32.8951 16.2727H34.4207L31.702 20.6364L34.4378 25H32.9037L30.8071 21.6335H30.7389L28.6423 25H27.1082L29.8909 20.6364L27.1253 16.2727H28.6508Z" fill="white"/>
</svg>
