<svg width="20" height="20" viewBox="0 0 20 20" fill="none" xmlns="http://www.w3.org/2000/svg">
<path d="M2.90339 17.7607L3.31484 17.1944L2.90339 17.7607ZM2.2397 17.097L2.80601 16.6856H2.80601L2.2397 17.097ZM17.7605 17.097L17.1942 16.6856L17.7605 17.097ZM17.0968 17.7607L16.6853 17.1944L17.0968 17.7607ZM17.0968 2.23994L16.6853 2.80625V2.80625L17.0968 2.23994ZM17.7605 2.90364L17.1942 3.31509L17.7605 2.90364ZM2.90339 2.23994L3.31484 2.80625V2.80625L2.90339 2.23994ZM2.2397 2.90364L2.80601 3.31509H2.80601L2.2397 2.90364ZM1.75013 12.3014C1.41016 12.4855 1.28378 12.9103 1.46785 13.2503C1.65192 13.5902 2.07674 13.7166 2.4167 13.5326L1.75013 12.3014ZM4.61141 11.5482L4.9447 12.1638H4.9447L4.61141 11.5482ZM9.5699 12.4825L9.03545 12.9346L9.5699 12.4825ZM13.6323 18.3691C13.882 18.6642 14.3237 18.7011 14.6188 18.4514C14.914 18.2018 14.9509 17.7601 14.7012 17.4649L13.6323 18.3691ZM10.5112 12.527C10.168 12.705 10.034 13.1275 10.212 13.4707C10.3899 13.8139 10.8124 13.9479 11.1556 13.7699L10.5112 12.527ZM11.7571 12.6695L12.0794 13.2909L11.7571 12.6695ZM15.2426 13.1948L15.7337 12.696L15.2426 13.1948ZM17.009 15.9158C17.2845 16.1871 17.7277 16.1836 17.9989 15.9081C18.2701 15.6325 18.2667 15.1893 17.9911 14.9181L17.009 15.9158ZM7.06675 1.66699V2.36699H12.9334V1.66699V0.966992H7.06675V1.66699ZM18.3334 7.06699H17.6334V12.9337H18.3334H19.0334V7.06699H18.3334ZM12.9334 18.3337V17.6337H7.06675V18.3337V19.0337H12.9334V18.3337ZM1.66675 12.9337H2.36675V7.06699H1.66675H0.966748V12.9337H1.66675ZM7.06675 18.3337V17.6337C5.92624 17.6337 5.12708 17.6327 4.5125 17.5661C3.91103 17.5009 3.56992 17.3797 3.31484 17.1944L2.90339 17.7607L2.49194 18.327C3.02546 18.7146 3.64111 18.8799 4.36171 18.958C5.0692 19.0346 5.95742 19.0337 7.06675 19.0337V18.3337ZM1.66675 12.9337H0.966748C0.966748 14.043 0.965787 14.9312 1.04244 15.6387C1.12051 16.3593 1.28576 16.9749 1.67339 17.5085L2.2397 17.097L2.80601 16.6856C2.62068 16.4305 2.49946 16.0894 2.43429 15.4879C2.36771 14.8733 2.36675 14.0742 2.36675 12.9337H1.66675ZM2.90339 17.7607L3.31484 17.1944C3.11958 17.0525 2.94787 16.8808 2.80601 16.6856L2.2397 17.097L1.67339 17.5085C1.9016 17.8226 2.17783 18.0988 2.49194 18.327L2.90339 17.7607ZM18.3334 12.9337H17.6334C17.6334 14.0742 17.6325 14.8733 17.5659 15.4879C17.5007 16.0894 17.3795 16.4305 17.1942 16.6856L17.7605 17.097L18.3268 17.5085C18.7144 16.9749 18.8797 16.3593 18.9577 15.6387C19.0344 14.9312 19.0334 14.043 19.0334 12.9337H18.3334ZM12.9334 18.3337V19.0337C14.0427 19.0337 14.931 19.0346 15.6385 18.958C16.359 18.8799 16.9747 18.7146 17.5082 18.327L17.0968 17.7607L16.6853 17.1944C16.4302 17.3797 16.0891 17.5009 15.4877 17.5661C14.8731 17.6327 14.0739 17.6337 12.9334 17.6337V18.3337ZM17.7605 17.097L17.1942 16.6856C17.0523 16.8808 16.8806 17.0525 16.6853 17.1944L17.0968 17.7607L17.5082 18.327C17.8223 18.0988 18.0986 17.8226 18.3268 17.5085L17.7605 17.097ZM12.9334 1.66699V2.36699C14.0739 2.36699 14.8731 2.36795 15.4877 2.43454C16.0891 2.4997 16.4302 2.62092 16.6853 2.80625L17.0968 2.23994L17.5082 1.67363C16.9747 1.28601 16.3591 1.12075 15.6385 1.04268C14.931 0.966031 14.0427 0.966992 12.9334 0.966992V1.66699ZM18.3334 7.06699H19.0334C19.0334 5.95766 19.0344 5.06944 18.9577 4.36195C18.8797 3.64136 18.7144 3.0257 18.3268 2.49219L17.7605 2.90364L17.1942 3.31509C17.3795 3.57017 17.5007 3.91127 17.5659 4.51275C17.6325 5.12732 17.6334 5.92648 17.6334 7.06699H18.3334ZM17.0968 2.23994L16.6853 2.80625C16.8806 2.94812 17.0523 3.11983 17.1942 3.31509L17.7605 2.90364L18.3268 2.49219C18.0986 2.17808 17.8223 1.90184 17.5082 1.67363L17.0968 2.23994ZM7.06675 1.66699V0.966992C5.95742 0.966992 5.0692 0.966031 4.3617 1.04268C3.64111 1.12075 3.02546 1.28601 2.49194 1.67363L2.90339 2.23994L3.31484 2.80625C3.56992 2.62092 3.91103 2.4997 4.5125 2.43454C5.12708 2.36795 5.92624 2.36699 7.06675 2.36699V1.66699ZM1.66675 7.06699H2.36675C2.36675 5.92648 2.36771 5.12732 2.43429 4.51275C2.49946 3.91127 2.62068 3.57017 2.80601 3.31509L2.2397 2.90364L1.67339 2.49219C1.28576 3.0257 1.12051 3.64136 1.04244 4.36195C0.965787 5.06944 0.966748 5.95767 0.966748 7.06699H1.66675ZM2.90339 2.23994L2.49194 1.67363C2.17783 1.90184 1.9016 2.17808 1.67339 2.49219L2.2397 2.90364L2.80601 3.31509C2.94787 3.11983 3.11958 2.94812 3.31484 2.80625L2.90339 2.23994ZM2.08341 12.917L2.4167 13.5326L4.9447 12.1638L4.61141 11.5482L4.27812 10.9327L1.75013 12.3014L2.08341 12.917ZM9.5699 12.4825L9.03545 12.9346L13.6323 18.3691L14.1667 17.917L14.7012 17.4649L10.1043 12.0304L9.5699 12.4825ZM4.61141 11.5482L4.9447 12.1638C6.31879 11.4198 8.02632 11.7415 9.03545 12.9346L9.5699 12.4825L10.1043 12.0304C8.6671 10.3313 6.23516 9.87306 4.27812 10.9327L4.61141 11.5482ZM10.8334 13.1485L11.1556 13.7699L12.0794 13.2909L11.7571 12.6695L11.4349 12.0481L10.5112 12.527L10.8334 13.1485ZM15.2426 13.1948L14.7516 13.6937L17.009 15.9158L17.5001 15.417L17.9911 14.9181L15.7337 12.696L15.2426 13.1948ZM11.7571 12.6695L12.0794 13.2909C12.9634 12.8326 14.0419 12.9951 14.7516 13.6937L15.2426 13.1948L15.7337 12.696C14.5921 11.5722 12.857 11.3107 11.4349 12.0481L11.7571 12.6695ZM14.6171 7.08366H13.9171C13.9171 7.61753 13.4843 8.05033 12.9504 8.05033V8.75033V9.45033C14.2575 9.45033 15.3171 8.39073 15.3171 7.08366H14.6171ZM12.9504 8.75033V8.05033C12.4165 8.05033 11.9837 7.61753 11.9837 7.08366H11.2837H10.5837C10.5837 8.39073 11.6433 9.45033 12.9504 9.45033V8.75033ZM11.2837 7.08366H11.9837C11.9837 6.54978 12.4165 6.11699 12.9504 6.11699V5.41699V4.71699C11.6433 4.71699 10.5837 5.77659 10.5837 7.08366H11.2837ZM12.9504 5.41699V6.11699C13.4843 6.11699 13.9171 6.54978 13.9171 7.08366H14.6171H15.3171C15.3171 5.77658 14.2575 4.71699 12.9504 4.71699V5.41699Z" fill="#A2A9B0"/>
</svg>
