<svg width="20" height="20" viewBox="0 0 20 20" fill="none" xmlns="http://www.w3.org/2000/svg">
<path d="M11.6667 15H17.5M2.5 15H4.16667M4.16667 15C4.16667 16.1506 5.09941 17.0834 6.25 17.0834C7.40059 17.0834 8.33333 16.1506 8.33333 15C8.33333 13.8494 7.40059 12.9167 6.25 12.9167C5.09941 12.9167 4.16667 13.8494 4.16667 15ZM16.6667 10H17.5M2.5 10H8.33333M10.8333 5.00002H17.5M10.8333 5.00002C10.8333 3.84943 9.90059 2.91669 8.75 2.91669C7.59941 2.91669 6.66667 3.84943 6.66667 5.00002C6.66667 6.15061 7.59941 7.08335 8.75 7.08335C9.90059 7.08335 10.8333 6.15061 10.8333 5.00002ZM2.5 5.00002H3.33333M13.75 12.0834C12.5994 12.0834 11.6667 11.1506 11.6667 10C11.6667 8.84943 12.5994 7.91669 13.75 7.91669C14.9006 7.91669 15.8333 8.84943 15.8333 10C15.8333 11.1506 14.9006 12.0834 13.75 12.0834Z" stroke="white" stroke-width="1.5" stroke-linecap="round" stroke-linejoin="round"/>
</svg>
