<svg width="24" height="24" viewBox="0 0 24 24" fill="none" xmlns="http://www.w3.org/2000/svg">
<rect x="1" y="1" width="22" height="22" rx="5" stroke="#24A148" stroke-width="2"/>
<path d="M18 2C20.2091 2 22 3.79086 22 6V18C22 20.2091 20.2091 22 18 22H6C3.79086 22 2 20.2091 2 18V6C2 3.79086 3.79086 2 6 2H18ZM18.4893 7.58105C18.0011 7.09307 17.2098 7.09292 16.7217 7.58105L10.5352 13.7676L7.88379 11.1162C7.39569 10.6283 6.60431 10.6283 6.11621 11.1162C5.65882 11.5738 5.63006 12.2982 6.03027 12.7891L6.11621 12.8848L9.65137 16.4199C9.88568 16.6541 10.2039 16.786 10.5352 16.7861C10.8666 16.7861 11.1855 16.6542 11.4199 16.4199L18.4902 9.34863C18.978 8.8605 18.9772 8.06912 18.4893 7.58105Z" fill="#24A148"/>
</svg>
