<svg width="24" height="24" viewBox="0 0 24 24" fill="none" xmlns="http://www.w3.org/2000/svg">
<rect x="1" y="1" width="22" height="22" rx="5" stroke="#24A148" stroke-width="2"/>
<path d="M18 2C20.2091 2 22 3.79086 22 6V18C22 20.2091 20.2091 22 18 22H6C3.79086 22 2 20.2091 2 18V6C2 3.79086 3.79086 2 6 2H18ZM7 10.75C6.30964 10.75 5.75 11.3096 5.75 12C5.75 12.6904 6.30964 13.25 7 13.25H17L17.1279 13.2432C17.7582 13.1791 18.25 12.6472 18.25 12C18.25 11.3528 17.7582 10.8209 17.1279 10.7568L17 10.75H7Z" fill="#24A148"/>
</svg>
