<svg width="24" height="24" viewBox="0 0 24 24" fill="none" xmlns="http://www.w3.org/2000/svg">
<path d="M20.3333 2H3.66667C3.22464 2 2.80072 2.17559 2.48816 2.48816C2.17559 2.80072 2 3.22464 2 3.66667V20.3333C2 20.7754 2.17559 21.1993 2.48816 21.5118C2.80072 21.8244 3.22464 22 3.66667 22H20.3333C20.7754 22 21.1993 21.8244 21.5118 21.5118C21.8244 21.1993 22 20.7754 22 20.3333V3.66667C22 3.22464 21.8244 2.80072 21.5118 2.48816C21.1993 2.17559 20.7754 2 20.3333 2ZM15.9229 14.7437C16.0003 14.8212 16.0618 14.9131 16.1037 15.0143C16.1456 15.1154 16.1671 15.2238 16.1671 15.3333C16.1671 15.4428 16.1456 15.5513 16.1037 15.6524C16.0618 15.7536 16.0003 15.8455 15.9229 15.9229C15.8455 16.0003 15.7536 16.0618 15.6524 16.1037C15.5513 16.1456 15.4428 16.1671 15.3333 16.1671C15.2238 16.1671 15.1154 16.1456 15.0143 16.1037C14.9131 16.0618 14.8212 16.0003 14.7437 15.9229L12 13.1781L9.25625 15.9229C9.17882 16.0003 9.08691 16.0618 8.98575 16.1037C8.88459 16.1456 8.77616 16.1671 8.66667 16.1671C8.55717 16.1671 8.44875 16.1456 8.34759 16.1037C8.24643 16.0618 8.15451 16.0003 8.07708 15.9229C7.99966 15.8455 7.93824 15.7536 7.89634 15.6524C7.85444 15.5513 7.83287 15.4428 7.83287 15.3333C7.83287 15.2238 7.85444 15.1154 7.89634 15.0143C7.93824 14.9131 7.99966 14.8212 8.07708 14.7437L10.8219 12L8.07708 9.25625C7.92072 9.09988 7.83287 8.8878 7.83287 8.66667C7.83287 8.44553 7.92072 8.23345 8.07708 8.07708C8.23345 7.92072 8.44553 7.83287 8.66667 7.83287C8.8878 7.83287 9.09988 7.92072 9.25625 8.07708L12 10.8219L14.7437 8.07708C14.8212 7.99966 14.9131 7.93824 15.0143 7.89634C15.1154 7.85444 15.2238 7.83287 15.3333 7.83287C15.4428 7.83287 15.5513 7.85444 15.6524 7.89634C15.7536 7.93824 15.8455 7.99966 15.9229 8.07708C16.0003 8.15451 16.0618 8.24643 16.1037 8.34759C16.1456 8.44875 16.1671 8.55717 16.1671 8.66667C16.1671 8.77616 16.1456 8.88459 16.1037 8.98575C16.0618 9.08691 16.0003 9.17882 15.9229 9.25625L13.1781 12L15.9229 14.7437Z" fill="#DA1E28"/>
</svg>
