<svg width="24" height="24" viewBox="0 0 24 24" fill="none" xmlns="http://www.w3.org/2000/svg">
<g opacity="0.3">
<path d="M5.33238 2.99341C5.23358 2.88204 5.11367 2.79139 4.97958 2.72671C4.84549 2.66204 4.6999 2.62461 4.55124 2.61661C4.40259 2.60862 4.25382 2.6302 4.11357 2.68013C3.97331 2.73005 3.84436 2.80731 3.73419 2.90743C3.62402 3.00755 3.53481 3.12855 3.47175 3.2634C3.40868 3.39826 3.373 3.54429 3.36679 3.69303C3.36057 3.84177 3.38394 3.99027 3.43554 4.12991C3.48714 4.26956 3.56594 4.39757 3.66738 4.50653L5.16738 6.16122C1.93769 8.31185 0.53613 11.3981 0.46863 11.5434C0.405117 11.6874 0.372314 11.8431 0.372314 12.0004C0.372314 12.1578 0.405117 12.3135 0.46863 12.4575C0.503317 12.5343 1.32457 14.3568 3.13957 16.1709C5.56582 18.5943 8.62488 19.875 11.9999 19.875C13.6402 19.8841 15.2657 19.5653 16.7811 18.9375L18.6646 21.0093C18.8663 21.226 19.1453 21.3545 19.441 21.3668C19.7368 21.3792 20.0255 21.2745 20.2446 21.0754C20.4637 20.8763 20.5955 20.5988 20.6114 20.3032C20.6273 20.0076 20.526 19.7177 20.3296 19.4962L5.33238 2.99341ZM11.9999 17.625C9.22582 17.625 6.79957 16.619 4.78957 14.6362C3.99893 13.8534 3.31861 12.9665 2.76738 12C3.26144 11.1272 4.52894 9.19685 6.70488 7.84778L15.1508 17.1393C14.1323 17.4646 13.0691 17.6284 11.9999 17.625ZM23.5311 12.4575C23.4974 12.5334 22.6874 14.3325 20.9061 16.1287C20.8041 16.2419 20.6802 16.3333 20.5418 16.3971C20.4035 16.461 20.2536 16.4961 20.1012 16.5003C19.9489 16.5045 19.7973 16.4777 19.6557 16.4215C19.514 16.3654 19.3852 16.281 19.2771 16.1736C19.1691 16.0661 19.084 15.9379 19.027 15.7965C18.97 15.6552 18.9423 15.5038 18.9456 15.3514C18.9488 15.199 18.9831 15.049 19.0461 14.9102C19.1092 14.7715 19.1998 14.647 19.3124 14.5443C20.0606 13.7836 20.7061 12.9282 21.2324 12C20.6815 11.0333 20.0011 10.1463 19.2102 9.36372C17.1993 7.38091 14.7739 6.37497 11.9999 6.37497C11.6858 6.37497 11.3718 6.3881 11.0624 6.41435C10.9133 6.43032 10.7625 6.41633 10.6189 6.37319C10.4753 6.33006 10.3418 6.25866 10.2262 6.16318C10.1106 6.0677 10.0152 5.95007 9.9457 5.81721C9.8762 5.68435 9.83396 5.53894 9.82146 5.38952C9.80896 5.24011 9.82646 5.0897 9.87292 4.94714C9.91938 4.80458 9.99387 4.67274 10.092 4.55938C10.1902 4.44603 10.31 4.35343 10.4444 4.28704C10.5789 4.22065 10.7252 4.1818 10.8749 4.17278C11.2433 4.14091 11.6249 4.12497 11.9999 4.12497C15.3749 4.12497 18.4339 5.40653 20.8583 7.82997C22.6724 9.64403 23.4936 11.4675 23.5283 11.5434C23.5923 11.6872 23.6256 11.8428 23.626 12.0001C23.6265 12.1575 23.5942 12.3133 23.5311 12.4575Z" fill="black"/>
</g>
</svg>
