<svg width="24" height="24" viewBox="0 0 24 24" fill="none" xmlns="http://www.w3.org/2000/svg">
<g opacity="0.3">
<path fill-rule="evenodd" clip-rule="evenodd" d="M11.6754 4.6994C9.46531 4.6994 7.49482 5.72252 6.21033 7.32487C5.86489 7.75579 5.23553 7.82509 4.80461 7.47965C4.37369 7.13421 4.30439 6.50485 4.64983 6.07393C6.29758 4.01843 8.83282 2.6994 11.6754 2.6994C16.3658 2.6994 20.2182 6.28739 20.6376 10.8684L20.9851 10.4817C21.3543 10.0709 21.9865 10.0371 22.3973 10.4063C22.8081 10.7754 22.8419 11.4077 22.4727 11.8185L20.4675 14.0499C20.2903 14.2472 20.0419 14.3659 19.777 14.3801C19.5122 14.3942 19.2526 14.3026 19.0553 14.1253L16.8239 12.1201C16.4131 11.751 16.3794 11.1187 16.7485 10.7079C17.1177 10.2971 17.7499 10.2634 18.1607 10.6325L18.6475 11.07C18.3293 7.49889 15.3293 4.6994 11.6754 4.6994ZM3.34269 10.1066C3.68951 9.67678 4.31909 9.6095 4.7489 9.95631L7.07148 11.8304C7.50129 12.1772 7.56857 12.8068 7.22176 13.2366C6.87495 13.6664 6.24537 13.7337 5.81555 13.3869L5.39517 13.0477C6.01593 16.2544 8.83845 18.6758 12.2265 18.6758C14.1485 18.6758 15.8869 17.8979 17.1472 16.6373C17.5377 16.2468 18.1709 16.2467 18.5614 16.6372C18.952 17.0277 18.9521 17.6609 18.5616 18.0514C16.9415 19.6718 14.7003 20.6758 12.2265 20.6758C7.79339 20.6758 4.11236 17.4557 3.3948 13.2269L3.0251 13.6851C2.67829 14.1149 2.04871 14.1822 1.6189 13.8354C1.18909 13.4886 1.1218 12.859 1.46862 12.4292L3.34269 10.1066Z" fill="black"/>
</g>
</svg>
