<svg width="24" height="24" viewBox="0 0 24 24" fill="none" xmlns="http://www.w3.org/2000/svg">
<path opacity="0.4" d="M11 3L5.77147 3C4.24083 3 3 4.24083 3 5.77147L3 11L8.22853 11C9.75917 11 11 9.75917 11 8.22853L11 3Z" fill="#C6C6C6"/>
<path d="M21 3L15.7715 3C14.2408 3 13 4.24083 13 5.77147L13 11L18.2285 11C19.7592 11 21 9.75917 21 8.22853L21 3Z" fill="#C6C6C6"/>
<path d="M11 13L5.77147 13C4.24083 13 3 14.2408 3 15.7715L3 21L8.22853 21C9.75917 21 11 19.7592 11 18.2285L11 13Z" fill="#C6C6C6"/>
<path opacity="0.4" d="M21 13L15.7715 13C14.2408 13 13 14.2408 13 15.7715L13 21L18.2285 21C19.7592 21 21 19.7592 21 18.2285L21 13Z" fill="#C6C6C6"/>
</svg>
