<svg width="24" height="24" viewBox="0 0 24 24" fill="none" xmlns="http://www.w3.org/2000/svg">
<path d="M12.0059 2C12.5386 2.11011 16.1856 3.68608 17.6826 4.4707C19.1858 5.25529 20.0418 6.26741 20.4668 7.16211C20.898 8.05689 21 10.3002 21 12.8809V22H16.5V16.5283C16.5 14.9799 16.449 13.6335 16.2334 13.0967C16.0209 12.56 15.5931 11.953 14.8418 11.4824C14.0934 11.0117 12.2693 10.0661 12.0029 10C11.7358 10.0707 9.91648 11.0118 9.16504 11.4824H9.1582C8.41012 11.953 7.98227 12.56 7.7666 13.0967C7.55414 13.6335 7.50001 14.9799 7.5 16.5283V22H3V12.8809C3 10.3002 3.10831 8.05689 3.5332 7.16211C3.96449 6.26741 4.82055 5.25529 6.31738 4.4707H6.33008C7.83296 3.6863 11.4715 2.11779 12.0059 2Z" fill="#C6C6C6"/>
</svg>
