<svg width="24" height="24" viewBox="0 0 24 24" fill="none" xmlns="http://www.w3.org/2000/svg">
<path opacity="0.3" d="M8 12L6.15721 12C3.86125 12 2 12.8272 2 13.8476L2 20H3.84279C6.13875 20 8 19.1728 8 18.1524L8 12Z" fill="#525252"/>
<path opacity="0.6" d="M15 8L13.1572 8C10.8612 8 9 9.24083 9 10.7715L9 20H10.8428C13.1388 20 15 18.7592 15 17.2285L15 8Z" fill="#525252"/>
<path d="M22 4L20.1572 4C17.8612 4 16 5.65444 16 7.6953L16 20H17.8428C20.1388 20 22 18.3456 22 16.3047L22 4Z" fill="#525252"/>
</svg>
