<svg width="96" height="96" viewBox="0 0 96 96" fill="none" xmlns="http://www.w3.org/2000/svg">
<path d="M48 9C69.5391 9 87 26.4609 87 48C87 69.5391 69.5391 87 48 87C26.4609 87 9 69.5391 9 48C9 26.4609 26.4609 9 48 9ZM30.125 52.9766C29.6943 52.9766 29.2812 53.1503 28.9766 53.4609C28.6722 53.7716 28.5004 54.1935 28.5 54.6328V64.5859C28.4999 64.9139 28.595 65.2351 28.7734 65.5078C28.952 65.7806 29.207 65.9916 29.5039 66.1172C29.8005 66.2425 30.1265 66.2786 30.4414 66.2148C30.7567 66.1508 31.0462 65.9899 31.2734 65.7578L35 61.9531C38.5997 65.4986 43.4036 67.4859 48.4062 67.5H48.5156C53.6089 67.5129 58.5028 65.4783 62.1367 61.8359C62.4333 61.5263 62.6013 61.1088 62.6016 60.6758C62.6016 60.2425 62.4334 59.8255 62.1367 59.5156C61.84 59.206 61.4359 59.0256 61.0117 59.0156C60.5882 59.006 60.1771 59.1662 59.8672 59.4609C56.8572 62.4614 52.8207 64.1561 48.6133 64.1836C44.4061 64.2108 40.3518 62.5701 37.3047 59.6094L41.0234 55.8125C41.2527 55.5812 41.4124 55.2872 41.4766 54.9648C41.5406 54.6419 41.5062 54.3045 41.3828 54C41.2594 53.6959 41.0497 53.4362 40.7812 53.2539C40.5126 53.0717 40.1975 52.9751 39.875 52.9766H30.125ZM47.4102 28.5C42.3457 28.5221 37.4858 30.5558 33.8633 34.168C33.5677 34.4773 33.4028 34.8921 33.4023 35.3242C33.4023 35.7571 33.5671 36.1746 33.8633 36.4844C34.1598 36.794 34.5642 36.9742 34.9883 36.9844C35.4127 36.9943 35.8264 36.8347 36.1367 36.5391C39.1652 33.502 43.2425 31.804 47.4883 31.8125H47.5781C51.7217 31.8267 55.7034 33.4649 58.6953 36.3906L54.9766 40.1914C54.749 40.4234 54.5941 40.7211 54.5312 41.043C54.4686 41.3642 54.4986 41.6973 54.6211 42C54.7442 42.3032 54.9552 42.5639 55.2227 42.7461C55.4899 42.9279 55.8038 43.0237 56.125 43.0234H65.875C66.3059 43.0234 66.7187 42.8499 67.0234 42.5391C67.328 42.2282 67.4998 41.8068 67.5 41.3672V31.4141C67.4992 31.0874 67.4045 30.7677 67.2266 30.4961C67.0482 30.224 66.7923 30.0122 66.4961 29.8867C66.2006 29.7619 65.8763 29.7301 65.5625 29.793C65.2481 29.8562 64.9579 30.0117 64.7305 30.2422L61 34.0469C57.3478 30.4671 52.4738 28.4783 47.4102 28.5Z" fill="#8D8D8D"/>
</svg>
