<svg width="201" height="200" viewBox="0 0 201 200" fill="none" xmlns="http://www.w3.org/2000/svg">
<path d="M175.834 36.6062H36.6344L18.25 19.5812C17.6394 19.0323 16.8372 18.7458 16.017 18.7835C15.1968 18.8213 14.4244 19.1804 13.8668 19.7831C13.3092 20.3859 13.0113 21.1839 13.0374 22.0045C13.0635 22.8252 13.4115 23.6026 14.0063 24.1687L27.4406 36.6062C25.6733 36.3371 23.8689 36.4486 22.1482 36.9331C20.4274 37.4177 18.83 38.2642 17.4628 39.4159C16.0957 40.5677 14.9903 41.9982 14.2206 43.6117C13.451 45.2253 13.0348 46.9845 13 48.7719V151.231C13.0033 154.456 14.2858 157.548 16.566 159.828C18.8462 162.108 21.9378 163.39 25.1625 163.394H164.366L182.753 180.419C183.33 180.954 184.088 181.251 184.875 181.25C185.499 181.24 186.105 181.044 186.617 180.689C187.13 180.333 187.525 179.833 187.753 179.252C187.98 178.672 188.03 178.037 187.896 177.427C187.762 176.818 187.45 176.263 187 175.831L173.562 163.394C175.329 163.663 177.134 163.552 178.854 163.068C180.575 162.584 182.172 161.738 183.539 160.586C184.906 159.435 186.011 158.004 186.781 156.391C187.55 154.777 187.966 153.018 188 151.231V48.7719C187.997 45.5464 186.714 42.4539 184.433 40.1731C182.152 37.8924 179.06 36.6096 175.834 36.6062ZM19.25 60.9813H53.7594L66.5844 72.8562H19.25V60.9813ZM62.9594 60.9813H181.75V72.8562H75.7812L62.9594 60.9813ZM175.834 42.8562C177.403 42.8579 178.906 43.4817 180.016 44.5907C181.125 45.6998 181.748 47.2035 181.75 48.7719V54.7313H56.2094L43.3844 42.8562H175.834ZM25.1656 42.8562H34.1875L47.0094 54.7313H19.25V48.7719C19.2517 47.2035 19.8754 45.6998 20.9845 44.5907C22.0935 43.4817 23.5972 42.8579 25.1656 42.8562ZM25.1625 157.144C23.5949 157.142 22.092 156.519 20.9836 155.41C19.8751 154.302 19.2517 152.799 19.25 151.231V79.1062H73.3344L118.562 120.981H100.5C99.6712 120.981 98.8763 121.31 98.2903 121.897C97.7042 122.483 97.375 123.277 97.375 124.106C97.375 124.935 97.7042 125.73 98.2903 126.316C98.8763 126.902 99.6712 127.231 100.5 127.231H125.312L138.088 139.063H100.5C99.6712 139.063 98.8763 139.392 98.2903 139.978C97.7042 140.564 97.375 141.359 97.375 142.188C97.375 143.016 97.7042 143.811 98.2903 144.397C98.8763 144.983 99.6712 145.313 100.5 145.313H144.837L157.616 157.144H25.1625ZM175.838 157.144H166.812L134.509 127.231H157.994C158.823 127.231 159.617 126.902 160.203 126.316C160.79 125.73 161.119 124.935 161.119 124.106C161.119 123.277 160.79 122.483 160.203 121.897C159.617 121.31 158.823 120.981 157.994 120.981H127.759L82.5312 79.1062H181.75V151.231C181.748 152.799 181.125 154.302 180.016 155.41C178.908 156.519 177.405 157.142 175.838 157.144Z" fill="#8D8D8D"/>
<path d="M67.3063 120.894H43.2907C40.0525 120.894 36.947 122.18 34.6573 124.47C32.3676 126.759 31.0813 129.865 31.0813 133.103C31.0813 136.341 32.3676 139.447 34.6573 141.736C36.947 144.026 40.0525 145.312 43.2907 145.312H67.3063C70.5444 145.312 73.6499 144.026 75.9396 141.736C78.2293 139.447 79.5157 136.341 79.5157 133.103C79.5157 129.865 78.2293 126.759 75.9396 124.47C73.6499 122.18 70.5444 120.894 67.3063 120.894ZM67.3063 139.062H43.2907C41.7101 139.062 40.1944 138.435 39.0768 137.317C37.9592 136.199 37.3313 134.684 37.3313 133.103C37.3313 131.523 37.9592 130.007 39.0768 128.889C40.1944 127.772 41.7101 127.144 43.2907 127.144H67.3063C68.8868 127.144 70.4026 127.772 71.5202 128.889C72.6378 130.007 73.2657 131.523 73.2657 133.103C73.2657 134.684 72.6378 136.199 71.5202 137.317C70.4026 138.435 68.8868 139.062 67.3063 139.062Z" fill="#8D8D8D"/>
<path d="M175.834 36.6062H36.6344L18.25 19.5812C17.6394 19.0323 16.8372 18.7458 16.017 18.7835C15.1968 18.8213 14.4244 19.1804 13.8668 19.7831C13.3092 20.3859 13.0113 21.1839 13.0374 22.0045C13.0635 22.8252 13.4115 23.6026 14.0063 24.1687L27.4406 36.6062C25.6733 36.3371 23.8689 36.4486 22.1482 36.9331C20.4274 37.4177 18.83 38.2642 17.4628 39.4159C16.0957 40.5677 14.9903 41.9982 14.2206 43.6117C13.451 45.2253 13.0348 46.9845 13 48.7719V151.231C13.0033 154.456 14.2858 157.548 16.566 159.828C18.8462 162.108 21.9378 163.39 25.1625 163.394H164.366L182.753 180.419C183.33 180.954 184.088 181.251 184.875 181.25C185.499 181.24 186.105 181.044 186.617 180.689C187.13 180.333 187.525 179.833 187.753 179.252C187.98 178.672 188.03 178.037 187.896 177.427C187.762 176.818 187.45 176.263 187 175.831L173.562 163.394C175.329 163.663 177.134 163.552 178.854 163.068C180.575 162.584 182.172 161.738 183.539 160.586C184.906 159.435 186.011 158.004 186.781 156.391C187.55 154.777 187.966 153.018 188 151.231V48.7719C187.997 45.5464 186.714 42.4539 184.433 40.1731C182.152 37.8924 179.06 36.6096 175.834 36.6062ZM19.25 60.9813H53.7594L66.5844 72.8562H19.25V60.9813ZM62.9594 60.9813H181.75V72.8562H75.7812L62.9594 60.9813ZM175.834 42.8562C177.403 42.8579 178.906 43.4817 180.016 44.5907C181.125 45.6998 181.748 47.2035 181.75 48.7719V54.7313H56.2094L43.3844 42.8562H175.834ZM25.1656 42.8562H34.1875L47.0094 54.7313H19.25V48.7719C19.2517 47.2035 19.8754 45.6998 20.9845 44.5907C22.0935 43.4817 23.5972 42.8579 25.1656 42.8562ZM25.1625 157.144C23.5949 157.142 22.092 156.519 20.9836 155.41C19.8751 154.302 19.2517 152.799 19.25 151.231V79.1062H73.3344L118.562 120.981H100.5C99.6712 120.981 98.8763 121.31 98.2903 121.897C97.7042 122.483 97.375 123.277 97.375 124.106C97.375 124.935 97.7042 125.73 98.2903 126.316C98.8763 126.902 99.6712 127.231 100.5 127.231H125.312L138.088 139.063H100.5C99.6712 139.063 98.8763 139.392 98.2903 139.978C97.7042 140.564 97.375 141.359 97.375 142.188C97.375 143.016 97.7042 143.811 98.2903 144.397C98.8763 144.983 99.6712 145.313 100.5 145.313H144.837L157.616 157.144H25.1625ZM175.838 157.144H166.812L134.509 127.231H157.994C158.823 127.231 159.617 126.902 160.203 126.316C160.79 125.73 161.119 124.935 161.119 124.106C161.119 123.277 160.79 122.483 160.203 121.897C159.617 121.31 158.823 120.981 157.994 120.981H127.759L82.5312 79.1062H181.75V151.231C181.748 152.799 181.125 154.302 180.016 155.41C178.908 156.519 177.405 157.142 175.838 157.144Z" fill="#8D8D8D"/>
<path d="M67.3063 120.894H43.2907C40.0525 120.894 36.947 122.18 34.6573 124.47C32.3676 126.759 31.0813 129.865 31.0813 133.103C31.0813 136.341 32.3676 139.447 34.6573 141.736C36.947 144.026 40.0525 145.312 43.2907 145.312H67.3063C70.5444 145.312 73.6499 144.026 75.9396 141.736C78.2293 139.447 79.5157 136.341 79.5157 133.103C79.5157 129.865 78.2293 126.759 75.9396 124.47C73.6499 122.18 70.5444 120.894 67.3063 120.894ZM67.3063 139.062H43.2907C41.7101 139.062 40.1944 138.435 39.0768 137.317C37.9592 136.199 37.3313 134.684 37.3313 133.103C37.3313 131.523 37.9592 130.007 39.0768 128.889C40.1944 127.772 41.7101 127.144 43.2907 127.144H67.3063C68.8868 127.144 70.4026 127.772 71.5202 128.889C72.6378 130.007 73.2657 131.523 73.2657 133.103C73.2657 134.684 72.6378 136.199 71.5202 137.317C70.4026 138.435 68.8868 139.062 67.3063 139.062Z" fill="#8D8D8D"/>
</svg>
