<svg width="201" height="200" viewBox="0 0 201 200" fill="none" xmlns="http://www.w3.org/2000/svg">
<path d="M100.5 60.3516C67.5703 60.3516 44.6406 78.1641 34.1328 88.5156C31.086 91.5234 26.1641 91.4844 23.1172 88.4766C20.0703 85.4297 20.0703 80.4297 23.1563 77.3828C26.75 73.8281 31.5156 69.6484 37.375 65.4297C56.3203 51.875 78.1563 44.7266 100.5 44.7266C113.898 44.7266 127.141 47.3047 139.68 52.3047L127.492 64.4922C118.781 61.7188 109.758 60.3516 100.5 60.3516ZM100.5 74.2969C75.6563 74.2969 56.086 86.9141 44.0156 97.5781C40.6172 100.547 40.461 105.781 43.6641 108.984C46.5547 111.875 51.2422 112.07 54.3281 109.336C55.8125 108.008 57.4531 106.641 59.211 105.312C72.4922 95.1172 86.3594 89.9219 100.461 89.9219C100.969 89.9219 101.477 89.9219 101.984 89.9609L115.969 75.9766C111.125 74.8828 105.93 74.2969 100.5 74.2969ZM100.5 134.57C91.8672 134.57 84.875 141.562 84.875 150.195C84.875 158.828 91.8672 165.82 100.5 165.82C109.133 165.82 116.125 158.828 116.125 150.195C116.125 141.562 109.133 134.57 100.5 134.57ZM65.3047 119.141C62.6485 121.562 62.1016 125.352 63.586 128.398L85.0703 106.914C76.6719 109.883 69.9531 114.883 65.3047 119.141ZM177.844 77.3828C174.25 73.8281 169.484 69.6484 163.625 65.4297C161.75 64.1016 159.875 62.8516 157.961 61.6406L146.594 73.0078C149.133 74.4922 151.633 76.0937 154.094 77.8516C159.406 81.6016 163.703 85.3906 166.867 88.5156C169.953 91.5234 174.836 91.5234 177.883 88.4766C180.93 85.3906 180.93 80.3906 177.844 77.3828ZM156.984 97.5781C151.516 92.7734 144.563 87.5781 136.281 83.2812L124.563 95C130.383 97.5 136.125 100.938 141.789 105.273C143.547 106.641 145.188 108.008 146.672 109.297C149.758 112.031 154.445 111.836 157.336 108.945C160.539 105.781 160.383 100.586 156.984 97.5781ZM113.508 106.094L99.7969 119.805H100.5C111.242 119.805 119.992 125.937 125.148 130.664C128.234 133.477 133 133.359 135.93 130.43C139.055 127.305 138.977 122.148 135.695 119.141C130.617 114.453 123.078 108.945 113.508 106.094ZM51.125 162.93L169.914 44.1406C172.219 41.8359 172.219 38.125 169.914 35.8594C167.609 33.5547 163.898 33.5547 161.633 35.8594L42.8438 154.609C40.5391 156.914 40.5391 160.625 42.8438 162.891C45.1094 165.234 48.8203 165.234 51.125 162.93Z" fill="#8D8D8D"/>
</svg>
